<svg width="32" height="32" viewBox="0 0 40 40" fill="none" xmlns="http://www.w3.org/2000/svg">
  <clipPath id="r">
    <rect width="40" height="40" rx="10"/>
  </clipPath>
  <g clip-path="url(#r)">
    <!-- Left half — image -->
    <rect width="20" height="40" fill="#111111"/>
    <path d="M0 32 L6 24 L10 28 L16 20 L20 26 L20 40 L0 40Z" fill="#262626"/>
    <path d="M0 34 L5 28 L8 31 L14 23 L20 30" stroke="white" stroke-opacity="0.35" stroke-width="1" fill="none" stroke-linecap="round" stroke-linejoin="round"/>
    <circle cx="15" cy="12" r="3" fill="#262626"/>
    <circle cx="15" cy="12" r="2.5" stroke="white" stroke-opacity="0.35" stroke-width="0.5" fill="none"/>

    <!-- Right half — spreadsheet -->
    <rect x="20" y="0" width="20" height="40" fill="#16A34A"/>
    <line x1="27" y1="8" x2="27" y2="32" stroke="white" stroke-opacity="0.3" stroke-width="0.75"/>
    <line x1="33" y1="8" x2="33" y2="32" stroke="white" stroke-opacity="0.3" stroke-width="0.75"/>
    <line x1="23" y1="16" x2="37" y2="16" stroke="white" stroke-opacity="0.3" stroke-width="0.75"/>
    <line x1="23" y1="24" x2="37" y2="24" stroke="white" stroke-opacity="0.3" stroke-width="0.75"/>
    <rect x="23.5" y="10" width="2.5" height="3" rx="0.5" fill="white" fill-opacity="0.65"/>
    <rect x="28.5" y="10" width="3.5" height="3" rx="0.5" fill="white" fill-opacity="0.65"/>
    <rect x="34" y="10" width="2" height="3" rx="0.5" fill="white" fill-opacity="0.65"/>
    <rect x="23.5" y="18.5" width="3" height="3" rx="0.5" fill="white" fill-opacity="0.65"/>
    <rect x="28.5" y="18.5" width="2" height="3" rx="0.5" fill="white" fill-opacity="0.65"/>
    <rect x="34" y="18.5" width="2.5" height="3" rx="0.5" fill="white" fill-opacity="0.65"/>
    <rect x="23.5" y="27" width="2" height="3" rx="0.5" fill="white" fill-opacity="0.65"/>
    <rect x="28.5" y="27" width="3" height="3" rx="0.5" fill="white" fill-opacity="0.65"/>
    <rect x="34" y="27" width="2.5" height="3" rx="0.5" fill="white" fill-opacity="0.65"/>

    <!-- Center divider -->
    <line x1="20" y1="0" x2="20" y2="40" stroke="white" stroke-opacity="0.1" stroke-width="0.75"/>
  </g>
</svg>
